<svg xmlns="http://www.w3.org/2000/svg" viewBox="0 0 247.81 81"><defs><style>.cls-1{fill:#4a90e2;}</style></defs><title>ePallet-logo-newnew</title><g id="Layer_2" data-name="Layer 2"><g id="Layer_1-2" data-name="Layer 1"><path class="cls-1" d="M97.55,59.43c.14,0,.21.07.21.22v1.18a.19.19,0,0,1-.21.21H94.4v9.17a.19.19,0,0,1-.21.21H92.78a.19.19,0,0,1-.22-.21V61H89.43a.19.19,0,0,1-.21-.21V59.65c0-.15.07-.22.21-.22Z"/><path class="cls-1" d="M107.27,62.56c.16,0,.23.13.23.26v.88q0,.24-.24.21H106c-.87,0-1.12.15-1.12.78v5.52a.19.19,0,0,1-.21.21h-1.31a.19.19,0,0,1-.22-.21v-6a1.55,1.55,0,0,1,.84-1.56,3.58,3.58,0,0,1,1.59-.27A7.1,7.1,0,0,1,107.27,62.56Z"/><path class="cls-1" d="M119.4,62.48a.19.19,0,0,1,.21.21V70c0,.19-.07.2-.21.23a17.09,17.09,0,0,1-3.2.24c-1.44,0-2.12-.08-2.69-.59s-.72-1.29-.72-2.83V62.69c0-.14.09-.21.25-.21h1.29a.18.18,0,0,1,.2.21v4.07c0,1.09,0,1.61.34,1.91s.58.31,1.34.31h1.65V62.69c0-.14.07-.21.22-.21Z"/><path class="cls-1" d="M131.52,63.2c.53.61.68,1.48.69,3.1v.43c0,.29-.1.39-.49.39h-4.55a2.43,2.43,0,0,0,.37,1.51A2.05,2.05,0,0,0,129,69h2.46a.19.19,0,0,1,.21.22v.89a.22.22,0,0,1-.2.24,16.93,16.93,0,0,1-2.57.16,3.59,3.59,0,0,1-2.76-.79,5.46,5.46,0,0,1-.67-3.24,5.41,5.41,0,0,1,.66-3.25,3.6,3.6,0,0,1,2.77-.8C130.24,62.41,131,62.58,131.52,63.2Zm-4,1.12a2.63,2.63,0,0,0-.35,1.55h3.29a2.58,2.58,0,0,0-.33-1.55,1.54,1.54,0,0,0-1.28-.41A1.62,1.62,0,0,0,127.52,64.32Z"/><path class="cls-1" d="M158.8,59.43c.18,0,.2,0,.19.23l-1.87,9.14a2.74,2.74,0,0,1-.57,1.41,2.55,2.55,0,0,1-1.44.28,2.77,2.77,0,0,1-1.55-.27,2.93,2.93,0,0,1-.6-1.42l-1.43-6-1.42,6c-.47,1.61-.43,1.61-2.17,1.69a2.49,2.49,0,0,1-1.42-.28A2.66,2.66,0,0,1,146,68.8l-1.87-9.14c0-.18,0-.23.19-.23h1.49c.13,0,.16,0,.2.23l1.7,8.43c.1.51.18.61.43.61s.34-.09.5-.61l2-8a.26.26,0,0,1,.27-.23h1.41a.26.26,0,0,1,.27.23l2,8c.13.52.2.61.5.61s.32-.1.43-.61l1.7-8.43c0-.16.08-.23.18-.23Z"/><path class="cls-1" d="M166.06,59.45a.19.19,0,0,1,.21.21v2.82a15.07,15.07,0,0,1,1.68-.07c1.44,0,2.12.08,2.68.58s.71,1.28.71,2.82v4.4a.19.19,0,0,1-.21.21h-1.31a.19.19,0,0,1-.21-.21V66.13c0-1.1-.05-1.61-.35-1.91s-.57-.32-1.33-.32h-1.66v6.31a.19.19,0,0,1-.21.21h-1.32a.18.18,0,0,1-.2-.21V59.66a.19.19,0,0,1,.21-.21Z"/><path class="cls-1" d="M183.41,69.7c-.44.53-1.39.79-2.81.79s-2.37-.26-2.82-.79a5.46,5.46,0,0,1-.67-3.24,5.45,5.45,0,0,1,.67-3.25c.45-.53,1.39-.8,2.82-.8s2.37.27,2.81.8a5.28,5.28,0,0,1,.69,3.25A5.28,5.28,0,0,1,183.41,69.7Zm-2.81-5.79c-.75,0-1.23.16-1.44.49a4.22,4.22,0,0,0-.32,2.06,4.2,4.2,0,0,0,.32,2.05c.21.32.69.47,1.44.47s1.22-.15,1.43-.47a4.2,4.2,0,0,0,.32-2.05A4.22,4.22,0,0,0,182,64.4C181.82,64.07,181.34,63.91,180.6,63.91Z"/><path class="cls-1" d="M191.44,59.43a.19.19,0,0,1,.22.22V70.21c0,.14-.07.21-.22.21h-1.31a.19.19,0,0,1-.21-.21V59.65c0-.15.07-.22.21-.22Z"/><path class="cls-1" d="M203.58,63.2c.53.61.68,1.48.69,3.1v.43c0,.29-.1.39-.49.39h-4.55a2.36,2.36,0,0,0,.37,1.51A2.05,2.05,0,0,0,201,69h2.46a.19.19,0,0,1,.21.22v.89a.22.22,0,0,1-.2.24,16.93,16.93,0,0,1-2.57.16,3.59,3.59,0,0,1-2.76-.79,5.46,5.46,0,0,1-.67-3.24,5.41,5.41,0,0,1,.66-3.25,3.6,3.6,0,0,1,2.77-.8C202.3,62.41,203.06,62.58,203.58,63.2Zm-4,1.12a2.64,2.64,0,0,0-.34,1.55h3.29a2.74,2.74,0,0,0-.33-1.55,1.56,1.56,0,0,0-1.28-.41A1.65,1.65,0,0,0,199.57,64.32Z"/><path class="cls-1" d="M215.06,62.56c.14,0,.21.1.21.23v.85c0,.14-.07.22-.23.22H212.4c-.63,0-1,.21-1,.63v.17c0,.36.26.65.79.85l1.88.69a1.92,1.92,0,0,1,1.47,2.09v.19c0,1.55-1,2-3,2-.92,0-1.86,0-2.8-.13-.15,0-.22-.08-.22-.21v-.89c0-.16.07-.23.23-.23h2.79c1,0,1.26-.12,1.26-.62v-.14c0-.36-.19-.59-.82-.82l-1.89-.72a2,2,0,0,1-1.44-2.11v-.29c0-1.45,1.09-1.92,3.09-1.92A15.38,15.38,0,0,1,215.06,62.56Z"/><path class="cls-1" d="M227.35,64.76v5a.42.42,0,0,1-.28.42,12.57,12.57,0,0,1-3.23.31,4.49,4.49,0,0,1-2.35-.46,2.21,2.21,0,0,1-.69-1.94c0-1.73.85-2.28,2.73-2.28h2.09v-.75c0-.8-.48-1.15-1.63-1.15h-2.35c-.17,0-.22,0-.22-.21v-.88c0-.17.05-.18.2-.23a12.84,12.84,0,0,1,2.37-.18C226.45,62.41,227.35,63.15,227.35,64.76Zm-1.73,2.3h-2c-.79,0-1.1.26-1.1,1s.36,1,1.45,1a7.06,7.06,0,0,0,1.64-.16Z"/><path class="cls-1" d="M234.88,59.43a.19.19,0,0,1,.22.22V70.21c0,.14-.07.21-.22.21h-1.3c-.15,0-.22-.07-.22-.21V59.65a.19.19,0,0,1,.22-.22Z"/><path class="cls-1" d="M247,63.2c.53.61.68,1.48.69,3.1v.43c0,.29-.1.39-.49.39h-4.55a2.36,2.36,0,0,0,.37,1.51,2.05,2.05,0,0,0,1.41.35h2.46a.19.19,0,0,1,.21.22v.89a.22.22,0,0,1-.2.24,16.93,16.93,0,0,1-2.57.16,3.59,3.59,0,0,1-2.76-.79,5.46,5.46,0,0,1-.67-3.24,5.41,5.41,0,0,1,.66-3.25,3.6,3.6,0,0,1,2.77-.8C245.74,62.41,246.5,62.58,247,63.2Zm-4,1.12a2.64,2.64,0,0,0-.34,1.55H246a2.74,2.74,0,0,0-.33-1.55,1.54,1.54,0,0,0-1.28-.41A1.65,1.65,0,0,0,243,64.32Z"/><path class="cls-1" d="M111.29,24.51c1.94,2.25,2.46,5.39,2.51,11.32V37.4c0,1.05-.36,1.42-1.78,1.42H95.4c.06,2.78.53,4.61,1.37,5.5s2.57,1.31,5.13,1.31h9a.7.7,0,0,1,.79.79v3.25a.86.86,0,0,1-.74.89,66.41,66.41,0,0,1-9.38.58c-5.09,0-8.44-1-10.07-2.89S89,42.33,89,36.41s.78-9.91,2.41-11.85,5-2.94,10.12-2.94S109.4,22.25,111.29,24.51ZM96.66,28.59Q95.49,30,95.4,34.26h12c0-2.83-.42-4.72-1.21-5.67s-2.3-1.46-4.66-1.46S97.45,27.6,96.66,28.59Z"/><path class="cls-1" d="M144.89,13.13c2.21,1.73,3.31,5.24,3.31,10.43,0,4.41-.68,7.18-2.1,9.12a6.75,6.75,0,0,1-3,2.21c-2.57,1-5.45,1.25-10.43,1.25h-6.56v14c0,.63-.15.78-.78.78H120.1c-.63,0-.79-.15-.79-.78V11.66c0-.58.16-.68.79-.73,3.72-.27,7.91-.42,12.53-.42C138.6,10.51,142.69,11.4,144.89,13.13Zm-18.82,3.25V30.74H132c4.14,0,5.82-.1,7.44-1.1s1.94-2.62,1.94-5.92c0-3.09-.63-5.09-1.83-6s-3.72-1.36-7.55-1.36Z"/><path class="cls-1" d="M173.73,30.22V48.46a1.48,1.48,0,0,1-1,1.52c-2.67.79-6.6,1.16-11.79,1.16-4,0-6.87-.58-8.55-1.68s-2.51-3.51-2.51-7.08c0-6.34,3.09-8.33,10-8.33h7.6V31.32c0-2.94-1.73-4.19-5.93-4.19h-8.59c-.63,0-.79-.16-.79-.79v-3.2c0-.63.16-.68.73-.84a46.91,46.91,0,0,1,8.65-.68C170.43,21.62,173.73,24.35,173.73,30.22Zm-6.34,8.39h-7.24c-2.88,0-4,.94-4,3.51,0,2.94,1.31,3.72,5.29,3.72a25.93,25.93,0,0,0,6-.57Z"/><path class="cls-1" d="M185.32,10.77a.7.7,0,0,1,.79.79V50.09a.7.7,0,0,1-.79.78h-4.77a.69.69,0,0,1-.79-.78V11.56a.7.7,0,0,1,.79-.79Z"/><path class="cls-1" d="M198,10.77a.7.7,0,0,1,.79.79V50.09a.69.69,0,0,1-.79.78h-4.77a.69.69,0,0,1-.78-.78V11.56a.69.69,0,0,1,.78-.79Z"/><path class="cls-1" d="M226.37,24.51c1.94,2.25,2.46,5.39,2.52,11.32V37.4c0,1.05-.37,1.42-1.79,1.42H210.48c.06,2.78.53,4.61,1.37,5.5s2.57,1.31,5.13,1.31h9a.7.7,0,0,1,.79.79v3.25a.86.86,0,0,1-.74.89,66.41,66.41,0,0,1-9.38.58c-5.09,0-8.44-1-10.07-2.89s-2.46-5.92-2.46-11.84.78-9.91,2.41-11.85,5-2.94,10.12-2.94S224.48,22.25,226.37,24.51Zm-14.63,4.08q-1.17,1.43-1.26,5.67h12c-.05-2.83-.42-4.72-1.21-5.67s-2.3-1.46-4.66-1.46S212.53,27.6,211.74,28.59Z"/><path class="cls-1" d="M240.47,13.86c.58-.15.89.06.89.74v7.34h5.19c.58,0,.84.26.84.78V26c0,.57-.26.83-.84.83h-5.19v16c0,2.31.69,2.78,3.25,2.78h2.31c.58,0,.89.26.89.74v3.46a.87.87,0,0,1-.78.94,20.15,20.15,0,0,1-3.73.37,16.24,16.24,0,0,1-4.66-.42c-2.31-.63-3.46-2.15-3.67-6V26.86h-3c-.58,0-.84-.26-.84-.83V22.72c0-.52.26-.78.84-.78h3v-6a.8.8,0,0,1,.73-.84Z"/><path class="cls-1" d="M36.4,81a3.7,3.7,0,0,1-1.62-.38L2,64.23A3.63,3.63,0,0,1,0,61V20a3.63,3.63,0,0,1,2-3.25L34.78.38A3.64,3.64,0,0,1,38,.38L70.8,16.77a3.63,3.63,0,0,1,2,3.25V61a3.63,3.63,0,0,1-2,3.25L38,80.62A3.71,3.71,0,0,1,36.4,81ZM7.28,58.73,36.4,73.29,65.53,58.73V50.49L38,64.23a3.58,3.58,0,0,1-3.25,0L18.39,56a3.63,3.63,0,0,1-2-3.25V28.21a3.63,3.63,0,0,1,2-3.25l16.39-8.19a3.58,3.58,0,0,1,3.25,0L54.41,25a3.62,3.62,0,0,1,2,3.25V36.4a3.64,3.64,0,0,1-2,3.26L38.19,47.77a3.75,3.75,0,0,1-4.68-1,3.64,3.64,0,0,1,1.27-5.46l14.37-7.19V30.46L36.4,24.09,23.66,30.46V50.54L36.4,56.91,65.53,42.35V22.27L36.4,7.71,7.28,22.27Z"/></g></g></svg>